# xmcd
#
# Track frame offsets: 
#        150
#        29912
#        51017
#        71305
#        91762
#        115075
#        138010
#        160937
#        177857
#        203515
#        230277
#
# Disc length: 3508 seconds
#
# Revision: 4
# Processed by: cddbd v1.5.2PL0 Copyright (c) Steve Scherf et al.
# Submitted via: ExactAudioCopy v0.95b4
#
DISCID=840db20b
DTITLE=Junior Wells - Live at Buddy Guy's Legends (Telarc)
DYEAR=1997
DGENRE=Blues
TTITLE0=Broke and Hungry
TTITLE1=Messin' with the Kid
TTITLE2=Hoodoo Man
TTITLE3=Little by Little
TTITLE4=The Train
TTITLE5=Sweet Sixteen
TTITLE6=What My Momma Done Told Me
TTITLE7=Got My Mojo Working
TTITLE8=Love Her with a Feeling
TTITLE9=Help Me
TTITLE10=Today I Started Loving You Again
EXTD=YEAR: 1997
EXTT0=
EXTT1=
EXTT2=
EXTT3=
EXTT4=
EXTT5=
EXTT6=
EXTT7=
EXTT8=
EXTT9=
EXTT10=
PLAYORDER=
